<?xml version="1.0" encoding="utf-8"?>
<!-- Generator: Adobe Illustrator 27.2.0, SVG Export Plug-In . SVG Version: 6.00 Build 0)  -->
<svg version="1.1" id="Livello_1" xmlns="http://www.w3.org/2000/svg" xmlns:xlink="http://www.w3.org/1999/xlink" x="0px" y="0px"
	 viewBox="0 0 24 24" style="enable-background:new 0 0 24 24;" xml:space="preserve">
<style type="text/css">
	.st0{fill:#B7A927;}
</style>
<g>
	<path class="st0" d="M3.6,21.8c0-3.1,0-6.2,0-9.3c-0.4,0-0.8,0-1.2,0c-0.3,0-0.5,0-0.8,0c-0.3,0-0.6-0.1-0.7-0.4
		c-0.1-0.3,0-0.5,0.2-0.8c1-0.9,2-1.7,2.9-2.6C6.6,6.6,9,4.5,11.4,2.4c0.4-0.4,0.7-0.4,1.1,0c3.3,2.9,6.6,5.7,9.9,8.6
		c0.1,0.1,0.2,0.2,0.4,0.3c0.2,0.2,0.3,0.4,0.2,0.7c-0.1,0.3-0.3,0.4-0.5,0.4c-0.5,0-0.9,0-1.4,0c-0.2,0-0.6-0.1-0.7,0.1
		c-0.1,0.1-0.1,0.4-0.1,0.7c0,2.8,0,5.5,0,8.3c0,0.4,0,0.4-0.3,0.4c-1.8,0-3.6,0-5.4,0c-0.1,0-0.2,0-0.3,0c0-2.2,0-4.4,0-6.6
		c-1.5,0-3,0-4.5,0c0,0.1,0,0.2,0,0.3c0,2,0,4,0,6c0,0.2,0,0.3-0.3,0.3c-1.8,0-3.7,0-5.5,0C3.8,21.9,3.7,21.8,3.6,21.8z"/>
</g>
</svg>
