
<svg version="1.1" id="Livello_1" xmlns="http://www.w3.org/2000/svg" xmlns:xlink="http://www.w3.org/1999/xlink" x="0px" y="0px"
	 viewBox="0 0 31.9 32" style="enable-background:new 0 0 31.9 32;" xml:space="preserve">
<style type="text/css">
	.st0{fill:#B7A927;}
</style>
<g>
	<g>
		<g>
			<path class="st0" d="M15.9,20.7c-2.6,0-4.7-2.1-4.7-4.7c0-2.6,2.1-4.7,4.7-4.7c2.6,0,4.7,2.1,4.7,4.7
				C20.6,18.6,18.5,20.7,15.9,20.7z M15.9,11.9c-2.3,0-4.1,1.8-4.1,4.1c0,2.3,1.8,4.1,4.1,4.1c2.3,0,4.1-1.8,4.1-4.1
				C20,13.8,18.2,11.9,15.9,11.9z"/>
		</g>
	</g>
	<g>
		<g>
			<path class="st0" d="M15.9,20.7c-2.6,0-4.7-2.1-4.7-4.7c0-2.6,2.1-4.7,4.7-4.7c2.6,0,4.7,2.1,4.7,4.7
				C20.6,18.6,18.5,20.7,15.9,20.7z M15.9,11.9c-2.3,0-4.1,1.8-4.1,4.1c0,2.3,1.8,4.1,4.1,4.1c2.3,0,4.1-1.8,4.1-4.1
				C20,13.8,18.2,11.9,15.9,11.9z"/>
		</g>
	</g>
	<g>
		<g>
			<circle class="st0" cx="15.9" cy="16" r="1.1"/>
		</g>
	</g>
	<g>
		<g id="_x3C_Ripetizione_radiale_x3E__00000018235137746528433410000002796412520697851044_">
			<g>
				<g>
					<circle class="st0" cx="12.4" cy="22.6" r="0.8"/>
				</g>
				<g>
					<circle class="st0" cx="9.3" cy="19.4" r="0.8"/>
				</g>
			</g>
			<g>
				<path class="st0" d="M7.6,26.7c-1.4,0-2.6-1.2-2.6-2.6c0-1.4,1.2-2.6,2.6-2.6s2.6,1.2,2.6,2.6C10.2,25.5,9.1,26.7,7.6,26.7z
					 M7.6,22.1c-1.1,0-2,0.9-2,2c0,1.1,0.9,2,2,2c1.1,0,2-0.9,2-2C9.6,23,8.7,22.1,7.6,22.1z"/>
			</g>
		</g>
		<g id="_x3C_Ripetizione_radiale_x3E__00000064335698084370061050000005818152493748386708_">
			<g>
				<g>
					<circle class="st0" cx="9.4" cy="12.5" r="0.8"/>
				</g>
				<g>
					<circle class="st0" cx="12.6" cy="9.4" r="0.8"/>
				</g>
			</g>
			<g>
				<path class="st0" d="M7.9,10.3c-1.4,0-2.6-1.2-2.6-2.6s1.2-2.6,2.6-2.6s2.6,1.2,2.6,2.6S9.3,10.3,7.9,10.3z M7.9,5.7
					c-1.1,0-2,0.9-2,2c0,1.1,0.9,2,2,2c1.1,0,2-0.9,2-2C9.9,6.6,9,5.7,7.9,5.7z"/>
			</g>
		</g>
		<g id="_x3C_Ripetizione_radiale_x3E__00000079461288380551781940000009538776055267558035_">
			<g>
				<g>
					<circle class="st0" cx="19.5" cy="9.5" r="0.8"/>
				</g>
				<g>
					<circle class="st0" cx="22.6" cy="12.6" r="0.8"/>
				</g>
			</g>
			<g>
				<path class="st0" d="M24.2,10.6c-1.4,0-2.6-1.2-2.6-2.6s1.2-2.6,2.6-2.6s2.6,1.2,2.6,2.6S25.7,10.6,24.2,10.6z M24.2,6
					c-1.1,0-2,0.9-2,2c0,1.1,0.9,2,2,2c1.1,0,2-0.9,2-2C26.2,6.9,25.3,6,24.2,6z"/>
			</g>
		</g>
		<g id="_x3C_Ripetizione_radiale_x3E__00000097467643132473508250000015436086144432320427_">
			<g>
				<g>
					<circle class="st0" cx="22.5" cy="19.6" r="0.8"/>
				</g>
				<g>
					<circle class="st0" cx="19.3" cy="22.7" r="0.8"/>
				</g>
			</g>
			<g>
				<path class="st0" d="M24,26.9c-1.4,0-2.6-1.2-2.6-2.6s1.2-2.6,2.6-2.6c1.4,0,2.6,1.2,2.6,2.6S25.4,26.9,24,26.9z M24,22.3
					c-1.1,0-2,0.9-2,2c0,1.1,0.9,2,2,2c1.1,0,2-0.9,2-2C26,23.2,25.1,22.3,24,22.3z"/>
			</g>
		</g>
	</g>
	<g>
		<g id="_x3C_Ripetizione_radiale_x3E__00000008839950555543535960000014735681036619908276_">
			<g>
				<path class="st0" d="M15.9,30.5c-1.7,0-3.6-0.3-5.7-1.2l-0.4-0.2l4.1-4.2c0.5-0.5,1.2-0.8,2-0.8c0,0,0,0,0,0
					c0.7,0,1.5,0.3,2,0.8l4.1,4.1l-0.4,0.2C21.6,29.3,19.2,30.5,15.9,30.5z M10.9,28.9c4.7,1.9,8.9,0.5,10.2,0l-3.5-3.5
					c-0.4-0.4-1-0.6-1.5-0.6c0,0,0,0,0,0c-0.6,0-1.1,0.2-1.6,0.6L10.9,28.9z"/>
			</g>
			<g>
				<path class="st0" d="M12.3,29.8l-0.4-0.4l2.1-2.1c0.5-0.5,1.2-0.8,2-0.8c0,0,0,0,0,0c0.7,0,1.5,0.3,2,0.8l2.1,2.1l-0.4,0.4
					l-2.1-2.1c-0.4-0.4-1-0.6-1.5-0.6c0,0,0,0,0,0c-0.6,0-1.1,0.2-1.6,0.6L12.3,29.8z"/>
			</g>
			<g>
				<path class="st0" d="M13.9,30.2l-0.4-0.4l0.5-0.5c1.1-1.1,2.9-1.1,4,0l0.5,0.5L18,30.2l-0.5-0.5c-0.9-0.9-2.2-0.9-3.1,0
					L13.9,30.2z"/>
			</g>
		</g>
		<g id="_x3C_Ripetizione_radiale_x3E__00000139975555022810481690000012072116558084822958_">
			<g>
				<path class="st0" d="M2.9,22.1l-0.2-0.4c-0.1-0.2-2.7-5.5,0-11.5l0.2-0.4L7,14c1.1,1.1,1.1,2.9,0,4L2.9,22.1z M3.1,10.9
					c-1.9,4.7-0.5,8.9,0,10.2l3.5-3.5c0.4-0.4,0.6-1,0.6-1.6c0-0.6-0.2-1.1-0.6-1.6L3.1,10.9z"/>
			</g>
			<g>
				<path class="st0" d="M2.6,20.1l-0.4-0.4l2.1-2.1c0.4-0.4,0.6-1,0.6-1.6c0-0.6-0.2-1.1-0.6-1.6l-2.1-2.1l0.4-0.4L4.7,14
					c0.5,0.5,0.8,1.2,0.8,2c0,0.7-0.3,1.5-0.8,2L2.6,20.1z"/>
			</g>
			<g>
				<path class="st0" d="M2.2,18.5L1.8,18l0.5-0.5c0.4-0.4,0.6-1,0.6-1.6c0-0.6-0.2-1.1-0.6-1.6L1.7,14l0.4-0.4L2.6,14
					c0.5,0.5,0.8,1.2,0.8,2c0,0.7-0.3,1.5-0.8,2L2.2,18.5z"/>
			</g>
		</g>
		<g id="_x3C_Ripetizione_radiale_x3E__00000070840203913564185390000012063355774436909726_">
			<g>
				<path class="st0" d="M15.9,7.9c-0.7,0-1.4-0.3-2-0.8L9.8,2.9l0.4-0.2c0.2-0.1,5.5-2.7,11.5,0l0.4,0.2l-4.1,4.2
					C17.4,7.6,16.6,7.9,15.9,7.9z M10.8,3.1l3.5,3.5c0.4,0.4,1,0.6,1.5,0.6c0,0,0,0,0,0c0.6,0,1.1-0.2,1.6-0.6L21,3.1
					C16.3,1.2,12.1,2.6,10.8,3.1z"/>
			</g>
			<g>
				<path class="st0" d="M15.9,5.6c-0.7,0-1.4-0.3-2-0.8l-2.1-2.1l0.4-0.4l2.1,2.1c0.9,0.9,2.2,0.9,3.1,0l2.1-2.1L20,2.6l-2.1,2.1
					C17.4,5.3,16.6,5.6,15.9,5.6z"/>
			</g>
			<g>
				<path class="st0" d="M15.9,3.5c-0.7,0-1.5-0.3-2-0.8l-0.5-0.5l0.4-0.4l0.5,0.5c0.4,0.4,1,0.6,1.5,0.6c0,0,0,0,0,0
					c0.6,0,1.1-0.2,1.6-0.6l0.5-0.5l0.4,0.4l-0.5,0.5C17.4,3.2,16.7,3.5,15.9,3.5C15.9,3.5,15.9,3.5,15.9,3.5z"/>
			</g>
		</g>
		<g id="_x3C_Ripetizione_radiale_x3E__00000085944268734141947110000001965860320728933816_">
			<g>
				<path class="st0" d="M29,22.1L24.9,18c-0.5-0.5-0.8-1.2-0.8-2c0-0.7,0.3-1.5,0.8-2L29,9.9l0.2,0.4c0.1,0.2,2.7,5.5,0,11.5
					L29,22.1z M28.8,10.9l-3.5,3.5c-0.4,0.4-0.6,1-0.6,1.6c0,0.6,0.2,1.1,0.6,1.6l3.5,3.5C30.8,16.4,29.3,12.2,28.8,10.9z"/>
			</g>
			<g>
				<path class="st0" d="M29.3,20.1L27.2,18c-0.5-0.5-0.8-1.2-0.8-2c0-0.7,0.3-1.5,0.8-2l2.1-2.1l0.4,0.4l-2.1,2.1
					c-0.4,0.4-0.6,1-0.6,1.6c0,0.6,0.2,1.1,0.6,1.6l2.1,2.1L29.3,20.1z"/>
			</g>
			<g>
				<path class="st0" d="M29.7,18.4L29.2,18c-0.5-0.5-0.8-1.2-0.8-2c0-0.7,0.3-1.5,0.8-2l0.5-0.5l0.4,0.4l-0.5,0.5
					c-0.4,0.4-0.6,1-0.6,1.6c0,0.6,0.2,1.1,0.6,1.6l0.5,0.5L29.7,18.4z"/>
			</g>
		</g>
	</g>
</g>
</svg>
